<?xml version="1.0" encoding="iso-8859-1"?>
<!-- Generator: Adobe Illustrator 19.0.0, SVG Export Plug-In . SVG Version: 6.00 Build 0)  -->
<svg version="1.1" id="Layer_1" xmlns="http://www.w3.org/2000/svg" xmlns:xlink="http://www.w3.org/1999/xlink" x="0px" y="0px"
	 viewBox="0 0 512 512" style="enable-background:new 0 0 512 512;" xml:space="preserve">
<path style="fill:#FFA834;" d="M400.428,347.18c-15.189-8.769-30.625-20.796-45.65-36.043
	c-66.411-67.403-99.598-172.162-74.133-233.984c1.062-2.577,2.218-5.025,3.444-7.371c1.088,0.038,2.181,0.09,3.282,0.171l0,0l0,0
	l0,0l0,0l62.171-36.129c-6.691-4.899-13.386-9.273-20.037-13.112C289.021-2.662,250.037-6.36,221.594,10.169l-62.171,36.129
	c0.106-0.062,0.215-0.116,0.321-0.178c-14.636,8.405-26.509,22.13-34.389,41.262c-29.962,72.735,9.088,195.979,87.21,275.268
	c17.681,17.947,35.854,32.108,53.729,42.428c40.511,23.389,79.516,27.073,107.963,10.506c-0.02,0.012-0.039,0.024-0.057,0.036
	l62.171-36.129c6.606-3.838,12.642-8.768,17.998-14.795C437.6,363.882,419.203,358.021,400.428,347.18z"/>
<path style="fill:#FFB657;" d="M159.423,46.297l62.171-36.129c28.443-16.529,67.427-12.83,107.911,10.545
	c6.651,3.839,13.346,8.213,20.037,13.112l-62.171,36.129c-6.691-4.899-13.386-9.273-20.037-13.112
	C226.851,33.467,187.867,29.768,159.423,46.297z"/>
<path style="fill:#FFEB9A;" d="M338.257,383.31c18.775,10.84,37.172,16.702,53.941,17.512
	c-28.415,31.979-76.018,33.056-125.903,4.254c-17.874-10.32-36.048-24.481-53.729-42.428
	C134.444,283.36,95.394,160.115,125.356,87.38c23.182-56.276,80.871-65.822,141.98-30.539c6.651,3.839,13.346,8.213,20.037,13.112
	c-30.581-2.235-56.013,12.054-68.898,43.33c-25.466,61.822,7.722,166.58,74.133,233.984
	C307.632,362.513,323.068,374.541,338.257,383.31z"/>
<path style="fill:#ACABB1;" d="M419.941,418.688c0.027-9.561-6.697-21.207-15.017-26.011l-12.66-7.309l23.442-13.623
	c2.705-1.572,4.382-4.914,4.394-9.664c0.027-9.561-6.697-21.207-15.017-26.011L117.866,170.244c-4.188-2.417-7.981-2.642-10.72-1.05
	l-44.797,26.021c0.008-0.005,0.018-0.009,0.027-0.015c-2.72,1.565-4.408,4.913-4.422,9.678c-0.027,9.561,6.697,21.207,15.017,26.011
	l12.66,7.309l-23.442,13.623c0.009-0.005,0.019-0.009,0.027-0.015c-2.72,1.565-4.409,4.913-4.422,9.678
	c-0.027,9.561,6.697,21.207,15.017,26.011l12.663,7.311l-23.447,13.625c0.008-0.005,0.018-0.009,0.027-0.015
	c-2.72,1.565-4.408,4.913-4.422,9.678c-0.027,9.561,6.697,21.207,15.017,26.011l287.218,165.826
	c4.308,2.487,8.195,2.648,10.95,0.904c-0.076,0.048-0.152,0.1-0.23,0.146l44.797-26.021c2.705-1.572,4.382-4.914,4.394-9.664
	c0.027-9.561-6.697-21.207-15.017-26.011l-12.664-7.311l23.447-13.625C418.251,426.779,419.927,423.437,419.941,418.688z"/>
<g>
	<path style="fill:#C6C5CB;" d="M359.967,475.308c8.321,4.804,15.044,16.449,15.017,26.011c-0.027,9.562-6.795,13.418-15.116,8.614
		L72.65,344.108c-8.321-4.804-15.044-16.449-15.017-26.011c0.027-9.561,6.795-13.418,15.116-8.614L359.967,475.308z"/>
	<path style="fill:#C6C5CB;" d="M360.128,418.697c8.321,4.804,15.044,16.449,15.017,26.011c-0.027,9.561-6.794,13.418-15.116,8.614
		L72.811,287.497c-8.321-4.804-15.044-16.45-15.017-26.011s6.795-13.418,15.116-8.614L360.128,418.697z"/>
	<path style="fill:#C6C5CB;" d="M72.972,230.889c-8.321-4.804-15.044-16.449-15.017-26.011c0.027-9.561,6.795-13.418,15.116-8.614
		l287.218,165.826c8.321,4.804,15.044,16.45,15.017,26.011c-0.027,9.561-6.794,13.418-15.116,8.614L72.972,230.889z"/>
</g>
<g>
</g>
<g>
</g>
<g>
</g>
<g>
</g>
<g>
</g>
<g>
</g>
<g>
</g>
<g>
</g>
<g>
</g>
<g>
</g>
<g>
</g>
<g>
</g>
<g>
</g>
<g>
</g>
<g>
</g>
</svg>
